<?xml version="1.0" encoding="UTF-8"?>
<svg xmlns="http://www.w3.org/2000/svg" version="1.1" width="300" height="300" viewBox="0 0 300 300"><rect x="0" y="0" width="300" height="300" fill="#ffffff"/><g transform="scale(8.108)"><g transform="translate(0,0)"><path fill-rule="evenodd" d="M8 0L8 3L9 3L9 5L8 5L8 9L7 9L7 8L6 8L6 9L7 9L7 10L6 10L6 11L7 11L7 10L8 10L8 11L10 11L10 12L11 12L11 14L9 14L9 16L8 16L8 15L7 15L7 14L6 14L6 15L7 15L7 16L6 16L6 17L4 17L4 16L5 16L5 15L4 15L4 16L3 16L3 15L2 15L2 14L1 14L1 15L0 15L0 16L1 16L1 15L2 15L2 17L1 17L1 18L3 18L3 19L4 19L4 20L3 20L3 21L4 21L4 23L5 23L5 24L4 24L4 25L7 25L7 24L6 24L6 23L10 23L10 24L8 24L8 26L6 26L6 27L8 27L8 26L9 26L9 27L10 27L10 28L11 28L11 29L13 29L13 32L11 32L11 30L10 30L10 29L8 29L8 30L9 30L9 31L10 31L10 32L11 32L11 33L9 33L9 32L8 32L8 35L9 35L9 34L11 34L11 35L10 35L10 37L13 37L13 35L14 35L14 31L16 31L16 30L14 30L14 29L13 29L13 28L16 28L16 27L17 27L17 29L18 29L18 31L17 31L17 35L18 35L18 37L19 37L19 35L20 35L20 37L23 37L23 32L21 32L21 31L22 31L22 30L21 30L21 29L23 29L23 30L24 30L24 34L26 34L26 36L25 36L25 37L26 37L26 36L27 36L27 37L28 37L28 36L30 36L30 37L37 37L37 34L36 34L36 36L33 36L33 35L34 35L34 34L35 34L35 32L36 32L36 33L37 33L37 32L36 32L36 31L37 31L37 30L35 30L35 32L34 32L34 33L33 33L33 31L34 31L34 30L33 30L33 28L34 28L34 29L37 29L37 26L36 26L36 25L37 25L37 22L36 22L36 21L35 21L35 20L36 20L36 19L37 19L37 18L35 18L35 16L36 16L36 17L37 17L37 14L35 14L35 12L34 12L34 11L36 11L36 13L37 13L37 10L34 10L34 9L37 9L37 8L34 8L34 9L33 9L33 12L32 12L32 13L31 13L31 11L32 11L32 10L30 10L30 9L32 9L32 8L29 8L29 4L28 4L28 3L29 3L29 2L28 2L28 1L29 1L29 0L28 0L28 1L27 1L27 2L28 2L28 3L26 3L26 4L28 4L28 5L25 5L25 6L24 6L24 7L23 7L23 6L22 6L22 4L23 4L23 5L24 5L24 4L25 4L25 3L22 3L22 2L23 2L23 1L22 1L22 0L21 0L21 3L20 3L20 4L19 4L19 2L20 2L20 0L18 0L18 1L17 1L17 3L18 3L18 4L19 4L19 5L20 5L20 7L21 7L21 8L19 8L19 6L18 6L18 5L15 5L15 6L14 6L14 7L13 7L13 5L14 5L14 4L16 4L16 1L15 1L15 0L12 0L12 1L11 1L11 0L10 0L10 1L9 1L9 0ZM12 1L12 2L11 2L11 3L10 3L10 2L9 2L9 3L10 3L10 4L11 4L11 5L9 5L9 9L8 9L8 10L9 10L9 9L11 9L11 10L10 10L10 11L11 11L11 12L14 12L14 11L11 11L11 10L15 10L15 11L16 11L16 12L17 12L17 11L18 11L18 9L16 9L16 6L15 6L15 8L13 8L13 7L12 7L12 6L11 6L11 5L13 5L13 1ZM14 1L14 2L15 2L15 1ZM24 1L24 2L26 2L26 1ZM11 3L11 4L12 4L12 3ZM21 3L21 4L22 4L22 3ZM10 6L10 8L11 8L11 9L13 9L13 8L11 8L11 6ZM17 6L17 8L18 8L18 6ZM21 6L21 7L22 7L22 6ZM25 6L25 8L26 8L26 9L27 9L27 10L28 10L28 11L26 11L26 10L25 10L25 9L24 9L24 8L22 8L22 9L21 9L21 10L22 10L22 11L21 11L21 12L20 12L20 9L19 9L19 12L20 12L20 14L19 14L19 13L16 13L16 15L15 15L15 14L14 14L14 13L12 13L12 14L11 14L11 15L10 15L10 16L12 16L12 17L8 17L8 16L7 16L7 17L6 17L6 18L4 18L4 19L5 19L5 20L4 20L4 21L5 21L5 20L8 20L8 22L9 22L9 20L8 20L8 19L10 19L10 18L13 18L13 20L12 20L12 19L11 19L11 20L10 20L10 23L11 23L11 24L10 24L10 25L11 25L11 27L12 27L12 26L13 26L13 25L14 25L14 23L15 23L15 24L16 24L16 22L17 22L17 25L18 25L18 26L19 26L19 27L20 27L20 28L22 28L22 27L23 27L23 26L25 26L25 25L23 25L23 24L22 24L22 25L21 25L21 23L25 23L25 24L26 24L26 25L27 25L27 26L28 26L28 27L27 27L27 28L31 28L31 26L35 26L35 25L36 25L36 22L35 22L35 21L34 21L34 22L33 22L33 21L32 21L32 22L31 22L31 21L30 21L30 19L31 19L31 17L30 17L30 19L29 19L29 20L28 20L28 19L26 19L26 18L28 18L28 17L29 17L29 16L28 16L28 17L26 17L26 18L25 18L25 17L24 17L24 18L25 18L25 19L24 19L24 20L23 20L23 19L22 19L22 20L21 20L21 18L22 18L22 16L19 16L19 15L20 15L20 14L21 14L21 15L22 15L22 14L23 14L23 16L26 16L26 15L25 15L25 13L24 13L24 14L23 14L23 12L22 12L22 11L23 11L23 10L22 10L22 9L24 9L24 10L25 10L25 11L24 11L24 12L28 12L28 13L30 13L30 14L28 14L28 15L30 15L30 16L31 16L31 15L30 15L30 14L31 14L31 13L30 13L30 10L29 10L29 9L28 9L28 6L27 6L27 8L26 8L26 6ZM2 8L2 9L0 9L0 12L1 12L1 13L3 13L3 14L4 14L4 13L5 13L5 8ZM2 9L2 10L1 10L1 12L2 12L2 11L3 11L3 13L4 13L4 11L3 11L3 10L4 10L4 9ZM15 9L15 10L16 10L16 9ZM28 11L28 12L29 12L29 11ZM6 12L6 13L8 13L8 12ZM33 12L33 13L32 13L32 16L33 16L33 17L32 17L32 18L34 18L34 19L33 19L33 20L35 20L35 18L34 18L34 16L35 16L35 14L34 14L34 15L33 15L33 13L34 13L34 12ZM21 13L21 14L22 14L22 13ZM26 13L26 14L27 14L27 13ZM13 14L13 15L12 15L12 16L13 16L13 17L15 17L15 18L14 18L14 19L15 19L15 18L16 18L16 19L17 19L17 20L18 20L18 23L21 23L21 22L20 22L20 21L21 21L21 20L20 20L20 18L21 18L21 17L19 17L19 16L18 16L18 15L19 15L19 14L18 14L18 15L16 15L16 16L15 16L15 15L14 15L14 14ZM16 16L16 18L18 18L18 19L19 19L19 18L18 18L18 16ZM7 17L7 18L6 18L6 19L7 19L7 18L8 18L8 17ZM0 20L0 21L1 21L1 22L2 22L2 20ZM13 20L13 21L11 21L11 22L13 22L13 23L14 23L14 22L15 22L15 21L14 21L14 20ZM25 20L25 21L26 21L26 20ZM6 21L6 22L5 22L5 23L6 23L6 22L7 22L7 21ZM13 21L13 22L14 22L14 21ZM22 21L22 22L23 22L23 21ZM27 22L27 23L26 23L26 24L27 24L27 23L28 23L28 25L29 25L29 26L30 26L30 25L35 25L35 24L32 24L32 23L31 23L31 22L30 22L30 23L29 23L29 22ZM0 23L0 29L1 29L1 23ZM30 23L30 24L29 24L29 25L30 25L30 24L31 24L31 23ZM2 24L2 26L3 26L3 27L2 27L2 28L3 28L3 27L4 27L4 28L5 28L5 29L7 29L7 28L5 28L5 26L3 26L3 24ZM11 24L11 25L12 25L12 24ZM19 24L19 25L20 25L20 26L21 26L21 27L22 27L22 26L21 26L21 25L20 25L20 24ZM15 25L15 26L14 26L14 27L15 27L15 26L16 26L16 25ZM24 27L24 29L25 29L25 28L26 28L26 27ZM32 27L32 28L33 28L33 27ZM34 27L34 28L36 28L36 27ZM19 29L19 30L20 30L20 29ZM26 29L26 30L28 30L28 29ZM29 29L29 32L32 32L32 29ZM30 30L30 31L31 31L31 30ZM19 31L19 32L18 32L18 33L19 33L19 34L18 34L18 35L19 35L19 34L20 34L20 33L19 33L19 32L20 32L20 31ZM25 31L25 32L26 32L26 31ZM27 31L27 32L28 32L28 31ZM11 33L11 34L12 34L12 35L13 35L13 33ZM15 33L15 34L16 34L16 33ZM26 33L26 34L27 34L27 35L28 35L28 33ZM29 33L29 35L31 35L31 36L32 36L32 35L33 35L33 34L32 34L32 33L31 33L31 34L30 34L30 33ZM31 34L31 35L32 35L32 34ZM15 35L15 36L16 36L16 35ZM21 35L21 36L22 36L22 35ZM0 0L0 7L7 7L7 0ZM1 1L1 6L6 6L6 1ZM2 2L2 5L5 5L5 2ZM30 0L30 7L37 7L37 0ZM31 1L31 6L36 6L36 1ZM32 2L32 5L35 5L35 2ZM0 30L0 37L7 37L7 30ZM1 31L1 36L6 36L6 31ZM2 32L2 35L5 35L5 32Z" fill="#000000"/></g></g></svg>
