<?xml version="1.0" encoding="UTF-8"?>
<svg xmlns="http://www.w3.org/2000/svg" version="1.1" width="300" height="300" viewBox="0 0 300 300"><rect x="0" y="0" width="300" height="300" fill="#ffffff"/><g transform="scale(8.108)"><g transform="translate(0,0)"><path fill-rule="evenodd" d="M8 0L8 3L9 3L9 5L8 5L8 9L7 9L7 8L6 8L6 9L7 9L7 10L6 10L6 11L7 11L7 10L8 10L8 11L10 11L10 12L11 12L11 14L10 14L10 13L8 13L8 12L6 12L6 13L7 13L7 14L5 14L5 8L2 8L2 9L0 9L0 11L1 11L1 12L0 12L0 13L3 13L3 14L4 14L4 15L5 15L5 16L6 16L6 17L5 17L5 18L6 18L6 19L7 19L7 20L5 20L5 21L4 21L4 22L3 22L3 21L2 21L2 20L0 20L0 21L1 21L1 25L0 25L0 29L1 29L1 26L2 26L2 27L3 27L3 26L2 26L2 23L5 23L5 24L3 24L3 25L7 25L7 24L6 24L6 23L10 23L10 24L8 24L8 26L6 26L6 27L8 27L8 26L9 26L9 27L10 27L10 28L11 28L11 29L13 29L13 32L12 32L12 30L9 30L9 28L8 28L8 30L9 30L9 31L10 31L10 33L13 33L13 35L12 35L12 34L10 34L10 36L12 36L12 37L13 37L13 35L14 35L14 31L16 31L16 30L15 30L15 29L14 29L14 28L17 28L17 29L18 29L18 30L17 30L17 31L19 31L19 33L18 33L18 32L17 32L17 33L18 33L18 34L19 34L19 33L21 33L21 34L20 34L20 35L22 35L22 36L20 36L20 37L24 37L24 35L25 35L25 34L26 34L26 36L25 36L25 37L26 37L26 36L27 36L27 37L28 37L28 36L30 36L30 37L37 37L37 34L36 34L36 36L33 36L33 35L34 35L34 34L35 34L35 32L36 32L36 33L37 33L37 32L36 32L36 31L37 31L37 30L35 30L35 32L34 32L34 33L33 33L33 31L34 31L34 30L33 30L33 28L34 28L34 29L37 29L37 26L36 26L36 25L37 25L37 22L36 22L36 21L35 21L35 20L33 20L33 19L34 19L34 18L35 18L35 19L36 19L36 20L37 20L37 18L35 18L35 16L36 16L36 17L37 17L37 14L35 14L35 12L34 12L34 11L36 11L36 13L37 13L37 10L34 10L34 9L37 9L37 8L34 8L34 9L33 9L33 10L32 10L32 11L33 11L33 12L32 12L32 13L31 13L31 10L30 10L30 9L32 9L32 8L29 8L29 4L28 4L28 3L29 3L29 2L28 2L28 1L29 1L29 0L28 0L28 1L27 1L27 2L28 2L28 3L26 3L26 4L25 4L25 6L24 6L24 5L23 5L23 6L22 6L22 4L24 4L24 3L22 3L22 2L23 2L23 1L22 1L22 0L17 0L17 1L21 1L21 3L20 3L20 4L19 4L19 2L17 2L17 3L18 3L18 5L16 5L16 1L15 1L15 0L13 0L13 2L12 2L12 1L11 1L11 0L10 0L10 2L9 2L9 0ZM14 1L14 2L15 2L15 1ZM24 1L24 2L26 2L26 1ZM10 2L10 3L12 3L12 4L11 4L11 5L9 5L9 9L8 9L8 10L9 10L9 9L11 9L11 10L10 10L10 11L11 11L11 12L13 12L13 14L12 14L12 15L13 15L13 14L14 14L14 15L15 15L15 16L16 16L16 18L15 18L15 17L13 17L13 20L11 20L11 21L13 21L13 22L10 22L10 23L11 23L11 24L10 24L10 25L11 25L11 27L12 27L12 26L13 26L13 28L14 28L14 25L15 25L15 26L16 26L16 27L17 27L17 25L18 25L18 26L19 26L19 27L20 27L20 28L21 28L21 26L20 26L20 25L22 25L22 26L23 26L23 27L22 27L22 28L23 28L23 29L25 29L25 28L26 28L26 27L25 27L25 26L24 26L24 25L27 25L27 26L29 26L29 28L31 28L31 26L35 26L35 25L36 25L36 22L35 22L35 21L34 21L34 22L33 22L33 21L32 21L32 22L31 22L31 21L30 21L30 19L31 19L31 17L30 17L30 19L29 19L29 20L28 20L28 19L26 19L26 18L28 18L28 17L29 17L29 16L28 16L28 17L26 17L26 18L25 18L25 17L24 17L24 18L25 18L25 19L24 19L24 20L23 20L23 19L22 19L22 20L21 20L21 18L22 18L22 16L21 16L21 15L22 15L22 14L23 14L23 16L26 16L26 15L25 15L25 13L24 13L24 12L20 12L20 9L19 9L19 12L20 12L20 16L19 16L19 17L18 17L18 15L19 15L19 13L16 13L16 12L13 12L13 11L15 11L15 10L16 10L16 11L18 11L18 9L16 9L16 6L15 6L15 7L14 7L14 6L13 6L13 7L12 7L12 6L11 6L11 5L13 5L13 3L12 3L12 2ZM21 3L21 4L22 4L22 3ZM14 4L14 5L15 5L15 4ZM26 4L26 5L28 5L28 4ZM18 5L18 6L17 6L17 8L18 8L18 6L19 6L19 8L21 8L21 9L24 9L24 8L25 8L25 9L26 9L26 10L24 10L24 11L25 11L25 12L27 12L27 11L26 11L26 10L27 10L27 9L28 9L28 10L29 10L29 11L28 11L28 13L30 13L30 14L28 14L28 15L30 15L30 16L31 16L31 15L30 15L30 14L31 14L31 13L30 13L30 10L29 10L29 8L28 8L28 6L27 6L27 7L26 7L26 6L25 6L25 7L24 7L24 6L23 6L23 7L22 7L22 6L21 6L21 7L20 7L20 5ZM10 6L10 8L11 8L11 9L13 9L13 10L11 10L11 11L13 11L13 10L14 10L14 7L13 7L13 8L11 8L11 6ZM25 7L25 8L26 8L26 9L27 9L27 8L26 8L26 7ZM2 9L2 10L3 10L3 11L2 11L2 12L3 12L3 13L4 13L4 10L3 10L3 9ZM33 12L33 13L32 13L32 16L33 16L33 17L32 17L32 18L34 18L34 16L35 16L35 14L34 14L34 15L33 15L33 13L34 13L34 12ZM14 13L14 14L15 14L15 15L16 15L16 16L17 16L17 15L16 15L16 13ZM21 13L21 14L22 14L22 13ZM23 13L23 14L24 14L24 13ZM26 13L26 14L27 14L27 13ZM1 14L1 15L0 15L0 16L1 16L1 15L2 15L2 17L1 17L1 18L3 18L3 19L4 19L4 16L3 16L3 15L2 15L2 14ZM9 14L9 15L10 15L10 14ZM6 15L6 16L7 16L7 17L6 17L6 18L7 18L7 19L8 19L8 22L9 22L9 20L10 20L10 18L11 18L11 19L12 19L12 17L11 17L11 16L8 16L8 15ZM20 16L20 17L19 17L19 18L18 18L18 19L17 19L17 18L16 18L16 19L17 19L17 20L16 20L16 21L14 21L14 20L13 20L13 21L14 21L14 22L13 22L13 23L14 23L14 24L15 24L15 23L16 23L16 22L17 22L17 20L18 20L18 21L19 21L19 22L18 22L18 23L23 23L23 24L24 24L24 23L23 23L23 22L24 22L24 21L21 21L21 20L20 20L20 21L19 21L19 20L18 20L18 19L19 19L19 18L20 18L20 17L21 17L21 16ZM7 17L7 18L8 18L8 19L9 19L9 18L10 18L10 17ZM14 18L14 19L15 19L15 18ZM25 20L25 21L26 21L26 20ZM5 21L5 23L6 23L6 22L7 22L7 21ZM20 21L20 22L21 22L21 21ZM27 22L27 23L26 23L26 24L27 24L27 23L28 23L28 25L29 25L29 26L30 26L30 25L35 25L35 24L32 24L32 23L31 23L31 22ZM29 23L29 25L30 25L30 24L31 24L31 23ZM11 24L11 25L12 25L12 24ZM16 24L16 25L17 25L17 24ZM19 24L19 25L20 25L20 24ZM4 26L4 28L5 28L5 29L7 29L7 28L5 28L5 26ZM24 27L24 28L25 28L25 27ZM27 27L27 28L28 28L28 27ZM32 27L32 28L33 28L33 27ZM34 27L34 28L36 28L36 27ZM2 28L2 29L3 29L3 28ZM19 29L19 31L20 31L20 32L23 32L23 34L25 34L25 33L24 33L24 30L22 30L22 29ZM26 29L26 30L28 30L28 29ZM29 29L29 32L32 32L32 29ZM21 30L21 31L22 31L22 30ZM30 30L30 31L31 31L31 30ZM25 31L25 32L26 32L26 31ZM27 31L27 32L28 32L28 31ZM8 32L8 35L9 35L9 32ZM15 33L15 34L16 34L16 33ZM26 33L26 34L27 34L27 35L28 35L28 33ZM29 33L29 35L31 35L31 36L32 36L32 35L33 35L33 34L32 34L32 33L31 33L31 34L30 34L30 33ZM31 34L31 35L32 35L32 34ZM15 35L15 36L16 36L16 35ZM18 35L18 36L17 36L17 37L19 37L19 35ZM0 0L0 7L7 7L7 0ZM1 1L1 6L6 6L6 1ZM2 2L2 5L5 5L5 2ZM30 0L30 7L37 7L37 0ZM31 1L31 6L36 6L36 1ZM32 2L32 5L35 5L35 2ZM0 30L0 37L7 37L7 30ZM1 31L1 36L6 36L6 31ZM2 32L2 35L5 35L5 32Z" fill="#000000"/></g></g></svg>
