<?xml version="1.0" encoding="UTF-8"?>
<svg xmlns="http://www.w3.org/2000/svg" version="1.1" width="300" height="300" viewBox="0 0 300 300"><rect x="0" y="0" width="300" height="300" fill="#ffffff"/><g transform="scale(8.108)"><g transform="translate(0,0)"><path fill-rule="evenodd" d="M8 0L8 2L9 2L9 3L8 3L8 7L9 7L9 4L10 4L10 5L11 5L11 6L10 6L10 7L11 7L11 8L9 8L9 10L11 10L11 11L10 11L10 12L9 12L9 11L8 11L8 10L6 10L6 9L7 9L7 8L6 8L6 9L4 9L4 8L3 8L3 9L2 9L2 10L0 10L0 11L1 11L1 13L0 13L0 14L1 14L1 17L0 17L0 18L1 18L1 17L2 17L2 16L3 16L3 15L4 15L4 16L5 16L5 17L3 17L3 18L2 18L2 19L3 19L3 18L4 18L4 19L5 19L5 20L4 20L4 22L1 22L1 23L0 23L0 25L2 25L2 24L3 24L3 26L2 26L2 27L1 27L1 26L0 26L0 27L1 27L1 28L0 28L0 29L4 29L4 28L5 28L5 29L8 29L8 30L9 30L9 29L10 29L10 28L11 28L11 29L12 29L12 30L13 30L13 31L11 31L11 30L10 30L10 31L9 31L9 32L12 32L12 33L11 33L11 34L13 34L13 33L14 33L14 30L15 30L15 29L16 29L16 28L17 28L17 30L16 30L16 32L15 32L15 34L14 34L14 35L12 35L12 37L13 37L13 36L14 36L14 37L17 37L17 36L16 36L16 33L18 33L18 34L17 34L17 35L18 35L18 34L19 34L19 36L18 36L18 37L20 37L20 34L22 34L22 36L25 36L25 37L27 37L27 36L28 36L28 37L29 37L29 36L30 36L30 37L32 37L32 35L33 35L33 34L36 34L36 35L37 35L37 28L36 28L36 27L37 27L37 24L36 24L36 27L35 27L35 28L34 28L34 27L33 27L33 26L31 26L31 25L32 25L32 24L33 24L33 23L34 23L34 21L33 21L33 19L32 19L32 18L33 18L33 17L34 17L34 20L35 20L35 21L36 21L36 23L37 23L37 21L36 21L36 20L37 20L37 16L36 16L36 18L35 18L35 16L33 16L33 17L32 17L32 18L31 18L31 15L32 15L32 13L31 13L31 12L33 12L33 14L34 14L34 15L35 15L35 14L36 14L36 15L37 15L37 12L36 12L36 13L35 13L35 14L34 14L34 11L37 11L37 8L35 8L35 10L34 10L34 8L31 8L31 9L30 9L30 11L31 11L31 12L30 12L30 14L28 14L28 13L29 13L29 11L28 11L28 13L27 13L27 14L26 14L26 12L27 12L27 11L26 11L26 10L27 10L27 9L28 9L28 8L27 8L27 6L28 6L28 7L29 7L29 4L28 4L28 2L29 2L29 1L28 1L28 0L26 0L26 1L25 1L25 2L26 2L26 1L27 1L27 3L25 3L25 5L24 5L24 4L23 4L23 3L24 3L24 1L23 1L23 0L22 0L22 1L21 1L21 0L20 0L20 1L19 1L19 2L18 2L18 3L17 3L17 0L15 0L15 2L14 2L14 0ZM10 1L10 4L11 4L11 5L12 5L12 6L11 6L11 7L12 7L12 6L13 6L13 8L14 8L14 6L15 6L15 8L17 8L17 9L14 9L14 10L13 10L13 11L14 11L14 13L13 13L13 14L12 14L12 13L11 13L11 14L12 14L12 18L13 18L13 19L12 19L12 20L11 20L11 15L9 15L9 14L10 14L10 13L6 13L6 12L7 12L7 11L6 11L6 10L5 10L5 12L4 12L4 15L5 15L5 16L8 16L8 19L6 19L6 18L7 18L7 17L5 17L5 19L6 19L6 20L5 20L5 23L3 23L3 24L4 24L4 25L5 25L5 23L6 23L6 24L7 24L7 25L6 25L6 26L8 26L8 28L10 28L10 27L11 27L11 28L14 28L14 27L15 27L15 28L16 28L16 27L15 27L15 26L14 26L14 27L11 27L11 25L10 25L10 23L11 23L11 24L12 24L12 25L16 25L16 26L17 26L17 28L19 28L19 29L18 29L18 30L17 30L17 32L18 32L18 30L19 30L19 29L20 29L20 31L19 31L19 32L20 32L20 31L21 31L21 33L23 33L23 32L22 32L22 30L23 30L23 31L24 31L24 32L26 32L26 31L27 31L27 33L24 33L24 34L23 34L23 35L25 35L25 34L26 34L26 36L27 36L27 34L28 34L28 28L29 28L29 27L28 27L28 25L29 25L29 26L30 26L30 27L31 27L31 28L33 28L33 27L31 27L31 26L30 26L30 24L32 24L32 23L30 23L30 24L28 24L28 22L29 22L29 21L27 21L27 20L29 20L29 18L28 18L28 17L29 17L29 16L30 16L30 15L29 15L29 16L25 16L25 20L24 20L24 19L23 19L23 18L22 18L22 17L19 17L19 18L18 18L18 16L20 16L20 14L21 14L21 13L20 13L20 14L19 14L19 15L18 15L18 14L17 14L17 16L16 16L16 14L14 14L14 13L15 13L15 11L16 11L16 13L17 13L17 11L18 11L18 12L19 12L19 11L18 11L18 10L19 10L19 9L18 9L18 8L21 8L21 7L22 7L22 6L21 6L21 4L22 4L22 5L23 5L23 8L22 8L22 9L21 9L21 10L20 10L20 12L22 12L22 11L24 11L24 12L23 12L23 14L22 14L22 15L23 15L23 14L24 14L24 15L25 15L25 14L24 14L24 12L25 12L25 10L26 10L26 9L27 9L27 8L26 8L26 6L27 6L27 5L25 5L25 7L24 7L24 5L23 5L23 4L22 4L22 2L23 2L23 1L22 1L22 2L21 2L21 4L20 4L20 2L19 2L19 3L18 3L18 4L17 4L17 3L16 3L16 2L15 2L15 3L16 3L16 5L20 5L20 6L19 6L19 7L18 7L18 6L17 6L17 7L16 7L16 6L15 6L15 5L13 5L13 4L14 4L14 3L13 3L13 4L11 4L11 2L12 2L12 1ZM20 6L20 7L21 7L21 6ZM17 7L17 8L18 8L18 7ZM11 8L11 9L12 9L12 8ZM23 8L23 9L24 9L24 10L25 10L25 9L26 9L26 8L25 8L25 9L24 9L24 8ZM17 9L17 10L18 10L18 9ZM32 9L32 10L31 10L31 11L32 11L32 10L33 10L33 11L34 11L34 10L33 10L33 9ZM3 10L3 11L2 11L2 13L1 13L1 14L2 14L2 15L3 15L3 11L4 11L4 10ZM11 11L11 12L12 12L12 11ZM5 13L5 15L7 15L7 14L6 14L6 13ZM13 14L13 15L14 15L14 16L15 16L15 15L14 15L14 14ZM27 14L27 15L28 15L28 14ZM9 16L9 17L10 17L10 16ZM13 17L13 18L15 18L15 19L16 19L16 20L15 20L15 21L14 21L14 20L13 20L13 21L14 21L14 23L12 23L12 24L15 24L15 23L16 23L16 25L17 25L17 22L18 22L18 24L19 24L19 25L18 25L18 27L19 27L19 25L20 25L20 26L21 26L21 24L23 24L23 25L22 25L22 29L23 29L23 30L24 30L24 31L26 31L26 30L27 30L27 29L26 29L26 30L24 30L24 28L27 28L27 25L28 25L28 24L26 24L26 23L27 23L27 22L26 22L26 20L25 20L25 21L24 21L24 20L23 20L23 19L21 19L21 18L20 18L20 19L21 19L21 20L17 20L17 19L18 19L18 18L17 18L17 19L16 19L16 17ZM26 17L26 18L27 18L27 17ZM9 18L9 20L10 20L10 21L9 21L9 22L10 22L10 21L11 21L11 20L10 20L10 18ZM30 18L30 20L31 20L31 18ZM0 19L0 21L2 21L2 20L1 20L1 19ZM35 19L35 20L36 20L36 19ZM6 20L6 21L7 21L7 20ZM15 21L15 22L17 22L17 21ZM18 21L18 22L19 22L19 23L21 23L21 21ZM31 21L31 22L33 22L33 21ZM6 22L6 23L7 23L7 24L9 24L9 23L7 23L7 22ZM23 22L23 23L24 23L24 24L25 24L25 22ZM8 25L8 26L10 26L10 25ZM34 25L34 26L35 26L35 25ZM3 26L3 27L2 27L2 28L3 28L3 27L5 27L5 26ZM23 26L23 28L24 28L24 26ZM6 27L6 28L7 28L7 27ZM13 29L13 30L14 30L14 29ZM29 29L29 32L32 32L32 29ZM33 29L33 32L34 32L34 33L35 33L35 32L36 32L36 31L35 31L35 32L34 32L34 30L36 30L36 29ZM30 30L30 31L31 31L31 30ZM8 33L8 34L9 34L9 35L10 35L10 36L9 36L9 37L10 37L10 36L11 36L11 35L10 35L10 33ZM19 33L19 34L20 34L20 33ZM30 33L30 34L29 34L29 35L30 35L30 36L31 36L31 35L32 35L32 34L31 34L31 33ZM35 36L35 37L37 37L37 36ZM0 0L0 7L7 7L7 0ZM1 1L1 6L6 6L6 1ZM2 2L2 5L5 5L5 2ZM30 0L30 7L37 7L37 0ZM31 1L31 6L36 6L36 1ZM32 2L32 5L35 5L35 2ZM0 30L0 37L7 37L7 30ZM1 31L1 36L6 36L6 31ZM2 32L2 35L5 35L5 32Z" fill="#000000"/></g></g></svg>
